<svg xmlns="http://www.w3.org/2000/svg" fill="none" viewBox="0 0 382 382"><g clip-path="url(#a)"><rect width="381.61" height="381.613" fill="#fff" rx="190.805"/><path fill="#fff" d="M0 0h381.61v381.613H0z"/><g clip-path="url(#b)"><path fill="#000" d="M204.473 140.888c-1.297-1.755-2.882-3.515-2.97-3.191-3.541 12.963-40.227 26.946-31.714-8.807 1.496-6.284-3.724-8.036-3.497-10.481l-2.285-6.106c-1.959-5.233-1.163-6.108-3.126-16.432-.209-1.1-2.314-4.264-3.914-7.467-2.613-5.228-3.079-6.402-3.292-11.506-.157-3.75.223-7.613.792-9.534.731-2.467.697-5.33-.114-9.747-.951-5.178.16-6.487 1.426-10.417.841-2.61 3.59-5.688 3.979-9.428 1.012-9.736 3.3-7.914 8.622-7.047 3.097.504 3.038 2.428 4.253 1.42.886-.735 2.076-.897 2.956-.402 2.868 1.615 17.052 13.604 19.415 16.623 1.906 2.436 2.651 2.81 3.636 1.826.681-.68 2.211-1.238 3.4-1.238 1.816 0 1.29.284 2.205 4.836.598 2.98 3.37 9.968 6.16 15.527 2.924 5.826 3.379 8.436 3.716 11.158.322 2.597 1.392 8.097 2.379 12.222.987 4.125 2.087 9.606 2.443 12.18.357 2.574 1.549 5.824 2.65 7.224 1.768 2.247 2.511 2.474 6.378 1.944l-23.498 26.843Zm-19.081 4.36c3.404-1.76 8.657-7.584 9.643-10.691.559-1.763.187-2.605-1.662-3.759-8.483-5.298-17.106-18.9-20.667-32.6-1.85-7.121-.607-2.99-1.736-3.086-1.798-.155-4.607 1.343-3.404-.584 1.174-1.88.956-2.875-1.833-8.395-1.741-3.444-3.449-7.612-3.796-9.262-.347-1.65 1.141.65 3.307 5.113 3.44 7.087 6.188 10.997 6.188 8.804 0-.385-1.964-5.7-4.364-11.81-2.401-6.109-5.147-13.499-6.102-16.422-.956-2.923-1.986-5.066-2.29-4.762-1.028 1.028-3.17 14.043-3.207 19.49-.029 4.316.557 6.34 2.898 10 1.873 2.928 3.365 7.118 4.125 11.587 1.549 9.101 3.209 15.017 7.537 21.561 3.669 5.549 4.397 10.117 2.335 14.644-2.324 5.101 1.702 11.621 7.176 11.621 1.677 0 4.311-.652 5.852-1.449Zm33.126-24.682c3.803-4.527 3.848-4.671 1.976-6.365-1.105-1.001-2.171-3.695-2.518-6.369-.332-2.549-1.653-8.235-2.935-12.635s-2.573-10.268-2.869-13.04c-.338-3.166-.444-5.144-3.568-11.533-2.789-5.704-5.277-12.382-5.666-15.21-.768-5.588-.782-6.268-3.09-4.352-2.098 1.74-2.341 4.521 2.566 14.562 3.95 8.083 3.97 8.177 1.007 4.764-1.662-1.915-4.408-7.09-6.1-11.5-3.577-9.32-.729-6.542-12.892-17.415-8.738-7.811-12.208-9.483-12.208-5.884 0 .717 4.066 5.726 9.035 11.13 6.535 7.109 7.227 9.194 9.793 14.6 1.951 4.11 4.441 8.728 5.533 10.262 2.168 3.045 1.095 3.864-1.362 1.04-.837-.963-3.612-5.835-6.166-10.827-2.995-5.852-5.392-10.242-8.646-13.417-2.775-2.708-5.273-5.521-7.681-8.842-6.095-8.406-8.892-9.656-10.142-7.49-1.225 2.124-1.709 4.459 1.548 5.688 1.667.63 4.075 2.966 5.634 5.469a84.56 84.56 0 0 0 6.21 8.752 51.898 51.898 0 0 1 5.422 8.292c1.611 3.091 6.125 16.367 5.707 16.784-.177.177-2.209-3.836-4.516-8.919-2.395-5.275-6.267-11.666-9.025-14.893-2.022-2.214-3.269-4.946-4.723-7.53-2.391-4.08-5.148-6.616-7.193-6.616-.387 0-2.197 4.917-.43 7.168 2.639 3.362-.909 2.18-1.686.87-1.785-3.003-3.055-1.316-3.055 4.986 0 6.867 1.865 7.724 3.33 1.531.696-2.944 1.336-3.673 3.221-3.673 1.81 0 2.08.744 4.652 5.167 1.84 3.162 3.964 7.325 4.719 9.25.756 1.925 2.887 6.65 4.736 10.5l3.362 7-3.021-3.449c-1.662-1.896-4.159-6.396-5.549-10-4.203-10.892-10.496-19.567-10.496-14.468 0 3.204 4.017 17.18 7.024 24.441 3.511 8.476 7.034 20.934 7.034 22.819 0 2.612 8.099 17.145 11.582 20.783 2.001 2.089 6.036 5.571 8.967 7.736 2.931 2.165 6.531 5.513 8.001 7.441.673 3.774 10.452-11.99 14.478-16.608Z"/></g><path fill="#D9D9D9" d="m92.805 179.613 98-10 98 10v154.33l-98 17.67-98-17.67v-154.33Z"/><path fill="#fff" d="m187.805 169.922 3-.309 3 .309v181.155l-3 .536-3-.536V169.922Z"/><path fill="#292929" d="m92.805 179.613 98-10-20 81h-118l40-71ZM210.805 250.613h118l-40-71-98-10 20 81Z"/></g><defs><clipPath id="a"><rect width="381.61" height="381.613" fill="#fff" rx="190.805"/></clipPath><clipPath id="b"><path fill="#fff" d="M153.639 30h74.332v121.613h-74.332z"/></clipPath></defs></svg>
