<svg xmlns="http://www.w3.org/2000/svg" fill="none" viewBox="0 0 20 20"><path fill="#0F0F0F" d="M15.596 1.43a.84.84 0 0 1 0-1.185.833.833 0 0 1 1.18 0l1.894 1.9.01.011a1.678 1.678 0 0 1-.004 2.364L16.781 6.42a.832.832 0 0 1-1.18 0 .84.84 0 0 1 0-1.184l1.067-1.07H4.167A.833.833 0 0 0 3.333 5v5.833a.833.833 0 1 1-1.666 0V5a2.5 2.5 0 0 1 2.5-2.5h12.495l-1.066-1.07ZM18.333 9.167a.833.833 0 1 0-1.666 0V15c0 .46-.373.833-.834.833H3.336l1.066-1.07a.84.84 0 0 0 0-1.184.833.833 0 0 0-1.18 0l-1.894 1.9-.01.01a1.678 1.678 0 0 0 .004 2.364l1.895 1.902a.832.832 0 0 0 1.18 0 .84.84 0 0 0 0-1.184L3.33 17.5h12.503a2.5 2.5 0 0 0 2.5-2.5V9.167Z"/></svg>
