<svg xmlns="http://www.w3.org/2000/svg" fill="none" viewBox="0 0 20 20"><path fill="#0F0F0F" fill-rule="evenodd" d="M10 2.5c-3.457 0-6.667 2.278-6.667 5.833 0 1.309.324 2.274.902 3.046.59.787 1.496 1.443 2.779 2.03l.68.311-.237.71c-.34 1.019-.915 1.954-1.497 2.724 2.01-.632 4.637-1.61 6.494-2.848 1.842-1.227 2.877-2.193 3.462-3.094.564-.867.75-1.736.75-2.879C16.667 4.778 13.458 2.5 10 2.5ZM1.667 8.333c0-4.778 4.29-7.5 8.333-7.5s8.333 2.722 8.333 7.5c0 1.358-.23 2.572-1.02 3.788-.769 1.183-2.026 2.3-3.934 3.572-2.48 1.654-6.074 2.826-8.13 3.414-.677.193-1.215-.204-1.447-.617-.228-.407-.285-1.036.151-1.522.584-.652 1.224-1.49 1.652-2.396-1.105-.585-2.027-1.29-2.703-2.193-.829-1.106-1.235-2.438-1.235-4.046Z" clip-rule="evenodd"/><path fill="#0F0F0F" d="M13.72 7.278A.833.833 0 0 0 12.54 6.1L8.97 9.672 7.482 8.185a.833.833 0 1 0-1.179 1.178l2.06 2.06a.834.834 0 0 0 1.008.13.83.83 0 0 0 .242-.169l4.106-4.106Z"/></svg>
